<?xml version="1.0" encoding="UTF-8" standalone="no"?><!-- Generator: Gravit.io --><svg xmlns="http://www.w3.org/2000/svg" xmlns:xlink="http://www.w3.org/1999/xlink" style="isolation:isolate" viewBox="0 0 11 11" width="11pt" height="11pt"><defs><clipPath id="_clipPath_pmQtJ9cOKVtcVQuLV6V63s7ddnUqT7X7"><rect width="11" height="11"/></clipPath></defs><g clip-path="url(#_clipPath_pmQtJ9cOKVtcVQuLV6V63s7ddnUqT7X7)"><rect x="4" y="0" width="3" height="1" transform="matrix(1,0,0,1,0,0)" fill="rgb(0,0,0)"/><rect x="4" y="10" width="3" height="1" transform="matrix(1,0,0,1,0,0)" fill="rgb(0,0,0)"/><rect x="4" y="0" width="3" height="11" transform="matrix(0,1,-1,0,11,0)" fill="rgb(0,0,0)"/><rect x="5" y="-2" width="1" height="7" transform="matrix(0,1,-1,0,7,-4)" fill="rgb(0,0,0)"/><rect x="5" y="6" width="1" height="7" transform="matrix(0,1,-1,0,15,4)" fill="rgb(0,0,0)"/><rect x="4.5" y="-1.5" width="2" height="9" transform="matrix(0,1,-1,0,8.5,-2.5)" fill="rgb(0,0,0)"/><rect x="4.5" y="3.5" width="2" height="9" transform="matrix(0,1,-1,0,13.5,2.5)" fill="rgb(0,0,0)"/></g></svg>